<svg width="32" height="32" viewBox="0 0 32 32" fill="none" xmlns="http://www.w3.org/2000/svg">
<path d="M14.4062 0.0687523C8.74372 0.600002 3.76872 3.89375 1.43122 8.65625C-0.00627718 11.5938 -0.368777 14.9438 0.412473 18.0688C0.849973 19.8375 1.54372 21.2813 2.83747 23.1563C2.91872 23.2688 2.78747 23.625 1.48747 26.8125C0.143723 30.1 0.0437228 30.3687 0.0374728 30.75C0.0312228 31.075 0.0624728 31.2 0.181223 31.3938C0.556223 32 1.26872 32.1375 2.06247 31.7687C2.28747 31.6625 4.11247 30.8563 6.12497 29.9688L9.77497 28.3563L10.6562 28.6438C12.5187 29.2438 13.8812 29.4563 15.9062 29.4625C17.4312 29.4688 18.1625 29.4063 19.4125 29.1563C21.0687 28.825 23.4875 27.9375 23.9875 27.475C24.6437 26.8813 24.4375 25.7563 23.6125 25.4063C23.225 25.25 22.9687 25.2875 22.1937 25.6375C21.1812 26.0813 20.5937 26.2938 19.6562 26.5313C16.6937 27.2875 13.6375 27.1188 10.7375 26.025C10.125 25.8 9.91247 25.7438 9.68747 25.7625C9.49372 25.7813 8.48747 26.1938 6.53747 27.0563C4.96247 27.75 3.65622 28.3 3.63747 28.2875C3.62497 28.2688 4.04997 27.1625 4.58747 25.8313C5.12497 24.4938 5.58122 23.3125 5.59997 23.2C5.66247 22.875 5.51872 22.4938 5.14372 22.025C2.61872 18.8875 1.86247 14.9563 3.06872 11.25C3.33747 10.4125 3.96247 9.14375 4.46247 8.40625C5.78122 6.4625 7.43747 5.05 9.65622 3.96875C11.0375 3.2875 12.325 2.89375 13.9375 2.64375C14.9375 2.49375 17.1187 2.49375 18.125 2.65C25.7187 3.83125 30.7 10.3125 29.2375 17.1188C28.975 18.3563 28.3562 19.8375 27.6687 20.9C27.4812 21.1813 27.2937 21.525 27.25 21.65C26.9875 22.4563 27.65 23.2938 28.5062 23.2375C29.025 23.2 29.2625 23.025 29.7187 22.3188C31.125 20.1688 31.8812 17.8063 31.9812 15.25C32.2 9.68125 28.9937 4.50625 23.6562 1.80625C22.0437 0.993752 20.3625 0.462502 18.5125 0.187502C17.5187 0.0375023 15.3875 -0.0249977 14.4062 0.0687523Z" fill="#C2ABCB"/>
<path d="M15.575 8.06879C15.275 8.15629 14.8938 8.56879 14.8063 8.88754C14.6625 9.44379 14.8813 10.025 15.3563 10.3188C15.7125 10.5438 16.3187 10.5313 16.6687 10.3C17.0562 10.0438 17.2187 9.73754 17.2187 9.25004C17.2187 8.76879 17.0562 8.45629 16.6875 8.21254C16.4187 8.03129 15.9062 7.96879 15.575 8.06879Z" fill="#C2ABCB"/>
<path d="M15.575 12.3812C15.2875 12.4688 14.8937 12.8812 14.8125 13.1812C14.7687 13.3562 14.75 14.6062 14.7625 17.0812L14.7812 20.725L14.95 20.9812C15.2062 21.3687 15.5125 21.5312 16 21.5312C16.4875 21.5312 16.7937 21.3687 17.05 20.9812L17.2187 20.725V16.9437V13.1562L17.0687 12.9187C16.775 12.4437 16.125 12.2125 15.575 12.3812Z" fill="#C2ABCB"/>
</svg>
