<svg preserveAspectRatio="xMinYMin none" fill="none"  viewBox="0 0 108 18"  xmlns="http://www.w3.org/2000/svg"><path d="m.44 17.5 3.264-16.800001h3.072l3.768 9.912001 3.768-9.912001h3.072l3.264 16.800001h-3.672l-1.752-9.072-3.432 9.072h-2.496l-3.432-9.072-1.752 9.072zm23.5659 0v-16.800001h10.704v3.600001h-7.104v2.4h5.472v3.6h-5.472v3.6h7.104v3.6zm26.536-16.800001v3.600001h-4.8v13.2h-3.6v-13.2h-4.8v-3.600001zm9.7162 17.112001c-1.136 0-2.204-.224-3.204-.672-1-.456-1.88-1.084-2.64-1.884s-1.356-1.724-1.788-2.772c-.432-1.056-.648-2.184-.648-3.384s.216-2.324.648-3.372c.432-1.056 1.028-1.984 1.788-2.784s1.64-1.424 2.64-1.872c1-.456001 2.068-.684001 3.204-.684001 1.144 0 2.216.228 3.216.684001 1 .448 1.88 1.072 2.64 1.872s1.352 1.728 1.776 2.784c.432 1.048.648 2.172.648 3.372s-.216 2.328-.648 3.384c-.424 1.048-1.016 1.972-1.776 2.772s-1.64 1.428-2.64 1.884c-1 .448-2.072.672-3.216.672zm0-3.6c.64 0 1.24-.132 1.8-.396.568-.272 1.068-.64 1.5-1.104.432-.472.768-1.016 1.008-1.632.248-.616.372-1.276.372-1.98s-.124-1.364-.372-1.98c-.24-.616-.576-1.156-1.008-1.62-.432-.472-.932-.84-1.5-1.104-.56-.272-1.16-.408-1.8-.408s-1.244.136-1.812.408c-.56.264-1.056.632-1.488 1.104-.432.464-.772 1.004-1.02 1.62-.24.616-.36 1.276-.36 1.98s.12 1.364.36 1.98c.248.616.588 1.16 1.02 1.632.432.464.928.832 1.488 1.104.568.264 1.172.396 1.812.396zm17.2928 3.6c-.944 0-1.848-.148-2.712-.444-.864-.304-1.62-.736-2.268-1.296-.648-.568-1.116-1.244-1.404-2.028l3.384-1.248c.08.232.256.456.528.672.28.216.632.396 1.056.54.424.136.896.204 1.416.204.48 0 .932-.068 1.356-.204.424-.144.768-.34 1.032-.588s.396-.536.396-.864c0-.336-.14-.612-.42-.828-.272-.224-.624-.4-1.056-.528-.424-.136-.86-.236-1.308-.3-1.216-.176-2.308-.464-3.276-.864-.96-.408-1.72-.968-2.28-1.68-.552-.712-.828-1.616-.828-2.712 0-1.048.296-1.964.888-2.748.592-.792 1.372-1.408 2.34-1.848.976-.440001 2.028-.660001 3.156-.660001.944 0 1.848.152 2.712.456001.872.296 1.632.728 2.28 1.296s1.112 1.248 1.392 2.04l-3.384 1.224c-.08-.232-.26-.452-.54-.66-.272-.216-.62-.392-1.044-.528s-.896-.204-1.416-.204c-.464-.008-.908.06-1.332.204s-.772.34-1.044.588-.408.528-.408.84c0 .432.128.756.384.972.256.208.592.356 1.008.444.424.088.888.168 1.392.24 1.152.168 2.212.468 3.18.9s1.744 1.008 2.328 1.728.876 1.596.876 2.628c0 1.048-.296 1.968-.888 2.76-.584.784-1.36 1.396-2.328 1.836s-2.024.66-3.168.66zm19.052-17.112001h3.6001v16.800001h-3.6001v-7.2h-5.952v7.2h-3.6v-16.800001h3.6v6.000001h5.952zm7.5541 16.800001v-16.800001h3.6v16.800001z" fill="#fff"/></svg>