<svg fill="none" height="120" viewBox="0 0 120 120" width="120" xmlns="http://www.w3.org/2000/svg"><g clip-rule="evenodd" fill="#FF14B1" fill-rule="evenodd"><path d="m60 0c-33.1371 0-60 26.8629-60 60s26.8629 60 60 60 60-26.8629 60-60-26.8629-60-60-60zm-22.7371 26h47.4742c4.0035 0 7.2629 3.22 7.2629 7.21v62.79l-7.6171-6.65-4.2869-3.92-4.5349-4.165 1.8778 6.475h-40.176c-4.0035 0-7.2629-3.22-7.2629-7.21v-47.32c0-3.99 3.2594-7.21 7.2629-7.21z"/><path d="m71.0616 71.7099s-1.2754-1.505-2.3382-2.835c4.6411-1.295 6.4125-4.165 6.4125-4.165-1.4525.945-2.8343 1.61-4.0743 2.065-1.7714.735-3.472 1.225-5.1371 1.505-3.4011.63-6.5189.455-9.176-.035-2.0194-.385-3.7554-.945-5.208-1.505-.8149-.315-1.7006-.7-2.5863-1.19-.0531-.035-.1063-.0613-.1594-.0875-.0532-.0263-.1063-.0525-.1594-.0875-.0709-.035-.1063-.07-.1418-.105-.6377-.35-.992-.595-.992-.595s1.7006 2.8 6.2 4.13c-1.0628 1.33-2.3737 2.905-2.3737 2.905-7.8297-.245-10.8057-5.32-10.8057-5.32 0-11.27 5.1017-20.405 5.1017-20.405 5.1017-3.78 9.9555-3.675 9.9555-3.675l.3542.42c-6.3771 1.82-9.3177 4.585-9.3177 4.585s.7795-.42 2.0903-1.015c3.7909-1.645 6.8023-2.1 8.0423-2.205l.0794-.0133c.1787-.0301.3373-.0567.5229-.0567 2.1611-.28 4.6057-.35 7.1566-.07 3.3657.385 6.9794 1.365 10.664 3.36 0 0-2.7989-2.625-8.8218-4.445l.496-.56s4.8538-.105 9.9555 3.675c0 0 5.1017 9.135 5.1017 20.405 0 0-3.0114 5.075-10.8412 5.32zm-15.4764-15.71c-2.0035 0-3.5853 1.8018-3.5853 4s1.6169 4 3.5853 4c2.0035 0 3.5852-1.8018 3.5852-4 .0352-2.1982-1.5817-4-3.5852-4zm9.2443 4c0-2.1982 1.5817-4 3.5852-4s3.5852 1.8018 3.5852 4-1.5817 4-3.5852 4c-1.9684 0-3.5852-1.8018-3.5852-4z"/></g></svg>