<svg fill="none" height="120" viewBox="0 0 120 120" width="120" xmlns="http://www.w3.org/2000/svg"><path clip-rule="evenodd" d="m60 0c-33.1371 0-60 26.8629-60 60s26.8629 60 60 60 60-26.8629 60-60-26.8629-60-60-60zm-1.6711 50.8449-.1259-2.0762c-.3777-5.381 2.9378-10.2959 8.1839-12.2025 1.9306-.678 5.2041-.7627 7.3445-.1695.8394.2542 2.4342 1.1016 3.5674 1.8643l2.0565 1.3982 2.2663-.7203c1.259-.3813 2.9378-1.0169 3.6932-1.4406.7135-.3813 1.343-.5932 1.343-.4661 0 .7203-1.5528 3.1778-2.8539 4.5336-1.7626 1.9067-1.259 2.0762 2.3083.8051 2.1404-.7203 2.1824-.7203 1.7627.0847-.2518.4237-1.5528 1.9067-2.9378 3.2625-2.3502 2.3304-2.4761 2.5846-2.4761 4.5336 0 3.0083-1.427 9.2791-2.8539 12.711-2.6441 6.4403-8.3098 13.0924-13.9756 16.4396-7.9741 4.7031-18.5922 5.8895-27.5315 3.1354-2.9798-.9321-8.1-3.3048-8.1-3.7285 0-.1272 1.5528-.2966 3.4414-.339 3.9451-.0847 7.8902-1.1864 11.2477-3.1354l2.2663-1.3558-2.6021-.8898c-3.6932-1.2711-7.0088-4.1947-7.8481-6.9487-.2519-.8898-.1679-.9321 2.1823-.9321l2.4342-.0424-2.0564-.9745c-2.4342-1.2288-4.6586-3.3049-5.7498-5.4234-.7974-1.5253-1.8046-5.381-1.5108-5.6776.0839-.1271.9652.1271 1.9725.4661 2.8958 1.0592 3.2736.805 1.5948-.9745-3.1477-3.2202-4.1129-8.008-2.6021-12.5416l.7135-2.0338 2.7699 2.7541c5.6658 5.5505 12.3389 8.8553 19.9772 9.8299z" fill="#FF14B1" fill-rule="evenodd"/></svg>