<svg fill="none" height="120" viewBox="0 0 120 120" width="120" xmlns="http://www.w3.org/2000/svg"><g fill="#FF14B1"><path clip-rule="evenodd" d="m60 0c-33.1371 0-60 26.8629-60 60s26.8629 60 60 60 60-26.8629 60-60-26.8629-60-60-60zm-13.1918 28.1933c3.4127-.1553 4.5036-.1933 13.1898-.1933 8.6888 0 9.7758.038 13.1885.1933 3.4067.156 5.7334.6954 7.7734 1.4867 2.1067.8167 3.8867 1.91 5.6667 3.6901 1.78 1.7786 2.8734 3.564 3.6934 5.6687.7867 2.0347 1.3267 4.36 1.4867 7.7667.1533 3.4134.1933 4.5041.1933 13.1948 0 8.6908-.04 9.7788-.1933 13.1922-.16 3.4053-.7 5.7314-1.4867 7.7667-.82 2.104-1.9134 3.8894-3.6934 5.6681-1.778 1.78-3.5607 2.876-5.6647 3.6933-2.036.7914-4.3641 1.3307-7.7708 1.4867-3.4133.1554-4.5007.1934-13.1921.1934-8.6901 0-9.7801-.038-13.1935-.1934-3.406-.156-5.732-.6953-7.7681-1.4867-2.1033-.8173-3.8887-1.9133-5.6667-3.6933-1.7793-1.7787-2.8727-3.5641-3.6907-5.6688-.7907-2.0346-1.33-4.36-1.4867-7.7667-.1546-3.4134-.1933-4.5007-.1933-13.1915 0-8.6907.04-9.7821.1927-13.1954.1533-3.4054.6933-5.7314 1.4866-7.7668.8201-2.104 1.9134-3.8894 3.6934-5.668 1.7787-1.7794 3.5641-2.8727 5.6687-3.6901 2.0347-.7913 4.3601-1.3307 7.7668-1.4867zm13.1898-.1933h.005-.01z" fill-rule="evenodd"/><path clip-rule="evenodd" d="m57.1323 33.7668c.5574-.0009 1.1571-.0006 1.8042-.0003.342.0001.6972.0003 1.0665.0003 8.5441 0 9.5568.0307 12.9308.184 3.12.1427 4.8134.664 5.9414 1.102 1.4934.58 2.558 1.2733 3.6774 2.3934 1.12 1.12 1.8133 2.1867 2.3947 3.68.438 1.1267.96 2.82 1.102 5.9401.1533 3.3733.1867 4.3867.1867 12.9268 0 8.54-.0334 9.5534-.1867 12.9268-.1427 3.12-.664 4.8133-1.102 5.94-.58 1.4934-1.2747 2.5567-2.3947 3.6761-1.12 1.12-2.1834 1.8133-3.6774 2.3933-1.1267.44-2.8214.96-5.9414 1.1027-3.3734.1533-4.3867.1867-12.9308.1867-8.5447 0-9.5574-.0334-12.9308-.1867-3.12-.144-4.8134-.6653-5.942-1.1033-1.4934-.58-2.5601-1.2734-3.6801-2.3934s-1.8133-2.184-2.3947-3.678c-.438-1.1267-.96-2.8201-1.102-5.9401-.1533-3.3734-.184-4.3867-.184-12.9321 0-8.5455.0307-9.5535.184-12.9268.1427-3.1201.664-4.8134 1.102-5.9414.58-1.4934 1.2747-2.5601 2.3947-3.6801s2.1867-1.8133 3.6801-2.3947c1.128-.44 2.822-.96 5.942-1.1033 2.952-.1333 4.0961-.1733 10.0601-.18zm19.9522 5.3134c-2.12 0-3.84 1.718-3.84 3.8387 0 2.12 1.72 3.84 3.84 3.84s3.8401-1.72 3.8401-3.84-1.7201-3.8401-3.8401-3.8401zm-33.515 20.9202c0-9.0754 7.3581-16.4335 16.4335-16.4335h-.0007c9.0755 0 16.4316 7.3581 16.4316 16.4335s-7.3555 16.4302-16.4309 16.4302-16.4335-7.3548-16.4335-16.4302z" fill-rule="evenodd"/><path d="m60.003 49.334c5.8907 0 10.6667 4.7754 10.6667 10.6668 0 5.8907-4.776 10.6667-10.6667 10.6667-5.8914 0-10.6668-4.776-10.6668-10.6667 0-5.8914 4.7754-10.6668 10.6668-10.6668z"/></g></svg>