<svg fill="none" height="120" viewBox="0 0 120 120" width="120" xmlns="http://www.w3.org/2000/svg"><path clip-rule="evenodd" d="m0 60c0 33.1371 26.8629 60 60 60s60-26.8629 60-60-26.8629-60-60-60-60 26.8629-60 60zm49 27.5 1.0209-15.2944-.0009-.0006 27.8223-25.1075c1.2211-1.0837-.2666-1.6122-1.8876-.6292l-34.3365 21.6625-14.8315-4.6292c-3.2029-.9806-3.2259-3.1816.7191-4.764l57.795-22.2855c2.6397-1.1984 5.1874.6341 4.1797 4.6742l-9.8425 46.3815c-.6873 3.2959-2.6787 4.0841-5.438 2.5617l-14.9932-11.0772-7.2068 7.0077c-.0227.0221-.0453.0441-.0678.066-.8061.7847-1.4729 1.434-2.9322 1.434z" fill="#FF14B1" fill-rule="evenodd"/></svg>