<svg fill="none" height="201" viewBox="0 0 623 201" width="623" xmlns="http://www.w3.org/2000/svg"><path clip-rule="evenodd" d="m362.631 197.001c-10.871.02-22.002.013-33.376.006-5.854-.003-11.774-.007-17.755-.007s-11.901.004-17.755.007c-84.468.052-155.508.096-206.4306-10.963-27.1859-5.904-48.2381-14.899-62.4788-28.423-14.1291-13.417-21.8356-31.563-21.8356-56.47 0-24.9077 7.7075-43.2078 21.8521-56.8462 14.2505-13.7406 35.3109-23.017 62.4916-29.205 53.2023-12.11209 128.3883-12.10663 217.8893-12.10012 2.081.00015 4.17.0003 6.267.0003s4.186-.00015 6.267-.0003c89.501-.00651 164.687-.01197 217.889 12.10012 27.181 6.188 48.241 15.4644 62.492 29.205 14.144 13.6384 21.852 31.9385 21.852 56.8462 0 24.907-7.707 43.053-21.836 56.47-14.24 13.524-35.292 22.519-62.478 28.423-34.944 7.589-79.362 9.95-131.09 10.667 16.587-1.663 32.605-3.706 47.573-6.041 21.068-3.287 40.077-7.157 55.683-11.37 15.57-4.204 27.873-8.781 35.445-13.529.702-.44.914-1.366.474-2.068s-1.366-.914-2.068-.474c-7.178 4.502-19.125 8.987-34.633 13.174-15.472 4.178-34.369 8.027-55.364 11.302-27.177 4.24-57.834 7.514-89.075 9.296zm.069 3.001c156.168-.291 260.3-6.238 260.3-98.851 0-101.1762609-124.278-101.166118-304.91-101.15137863-2.189.00017857-4.385.00035781-6.59.00035781s-4.401-.00017924-6.59-.00035781c-180.632-.01473937-304.91-.02488227-304.91 101.15137863 0 99.044 119.097 98.968 293.57 98.857 5.424-.004 10.901-.007 16.43-.008h1.5c6.039 0 12.016.004 17.93.008 11.33.007 22.425.014 33.27-.006z" fill="#b114ff" fill-rule="evenodd"/></svg>