<svg width="60" height="60" viewBox="0 0 60 60" fill="none" xmlns="http://www.w3.org/2000/svg">
<path d="M4.62901 0.515625C2.63682 0.996094 0.925882 2.71875 0.468851 4.6875C0.140726 6.09375 0.38682 7.74609 1.10166 8.95312C1.26573 9.22266 6.01182 14.0508 11.6485 19.6875L21.9142 29.9414L11.5079 40.3711C0.304789 51.5977 0.609476 51.2578 0.175882 52.9102C-0.163961 54.2578 0.0235387 55.6523 0.726664 56.9766C1.82823 59.0508 4.41807 60.0586 7.16026 59.4844C8.80088 59.1328 8.36729 59.5195 19.5118 48.3867C25.1837 42.7266 29.8829 38.0859 29.9415 38.0859C30.0001 38.0859 34.6993 42.7148 40.3712 48.3867C49.9337 57.9375 50.7423 58.7109 51.4454 59.0391C53.8712 60.1641 56.8009 59.707 58.4767 57.9375C60.0587 56.2734 60.422 53.7188 59.3907 51.5742C59.0509 50.8594 58.2306 50.0156 48.5274 40.3477L38.0274 29.9062L48.2345 19.6641C54.5978 13.2891 58.5587 9.23438 58.7462 8.90625C59.2618 7.99219 59.4493 7.125 59.3907 5.87109C59.3204 4.52344 59.0392 3.70312 58.3009 2.71875C56.8595 0.808594 54.2462 0 51.9728 0.773438C50.672 1.20703 50.086 1.75781 39.9142 11.9414L29.9532 21.9023L19.6993 11.6836C8.67198 0.714844 8.94151 0.949219 7.32432 0.527344C6.51573 0.316406 5.44932 0.316406 4.62901 0.515625Z" fill="white"/>
</svg>
