<svg width="68" height="84" viewBox="0 0 68 84" fill="none" xmlns="http://www.w3.org/2000/svg">
<path d="M27.1096 1.05001C22.3986 2.16563 16.7033 5.70938 13.6799 9.18751C9.67209 13.8469 8.40646 17.325 8.12521 24.7406L7.84396 31.4344L4.18771 31.6313L0.601773 31.8281L0.390836 54.9938C0.179898 80.4563 0.320523 80.9813 4.46896 83.0156C7.4924 84.4594 60.508 84.4594 63.5315 83.0156C67.6799 80.9813 67.8205 80.4563 67.6096 54.9938L67.3987 31.8281L63.8127 31.6313L60.1565 31.4344L59.8752 24.7406C59.4533 14.8969 56.1487 9.12188 48.344 4.26563C41.9455 0.328132 34.4924 -0.853119 27.1096 1.05001ZM38.4299 11.2219C39.9065 11.55 42.2268 12.7969 43.633 13.9781C47.3596 17.0625 48.7658 20.3438 48.7658 26.3813V31.5H34.0002H19.2346V26.3813C19.2346 22.9031 19.6565 20.5406 20.5705 18.7031C23.7346 12.2719 30.9065 9.25313 38.4299 11.2219ZM39.2033 47.9063C41.6643 50.2031 42.0158 54.1406 39.8362 56.6344C38.6408 58.1438 38.5002 58.8 39.0627 63.3281C39.9065 69.6281 39.4846 70.2188 34.0002 70.2188C28.5158 70.2188 28.094 69.6281 28.9377 63.3281C29.5002 58.8 29.3596 58.1438 28.1643 56.6344C26.0549 54.1406 26.3362 50.2688 28.7268 47.9063C31.8908 44.8219 35.758 44.8219 39.2033 47.9063Z" fill="white" fill-opacity="0.2"/>
</svg>
