<svg fill="none" height="20" viewBox="0 0 20 20" width="20" xmlns="http://www.w3.org/2000/svg"><path d="m19 9.646v9.354c0 .2652-.1054.5196-.2929.7071s-.4419.2929-.7071.2929h-16c-.26521 0-.51957-.1054-.7071-.2929-.18754-.1875-.2929-.4419-.2929-.7071v-9.354c-.64568-.73004-1.00144327-1.67139-.9999956-2.646v-6c0-.265216.1053566-.51957.2928936-.707107.187536-.187536.44189-.292893.707102-.292893h18c.2652 0 .5196.105357.7071.292893.1875.187537.2929.441891.2929.707107v6c0 1.014-.378 1.94-1 2.646zm-7-2.646c0-.26522.1054-.51957.2929-.70711.1875-.18753.4419-.29289.7071-.29289s.5196.10536.7071.29289c.1875.18754.2929.44189.2929.70711 0 .53043.2107 1.03914.5858 1.41421.3751.37508.8838.58579 1.4142.58579s1.0391-.21071 1.4142-.58579c.3751-.37507.5858-.88378.5858-1.41421v-5h-16v5c0 .53043.21072 1.03914.58579 1.41421.37507.37508.88378.58579 1.41421.58579.53044 0 1.03914-.21071 1.41422-.58579.37507-.37507.58578-.88378.58578-1.41421 0-.26522.10536-.51957.2929-.70711.18753-.18753.44189-.29289.7071-.29289.26522 0 .51957.10536.70711.29289.18754.18754.29289.44189.29289.70711 0 .53043.21072 1.03914.58579 1.41421.37507.37508.88378.58579 1.41421.58579.5304 0 1.0391-.21071 1.4142-.58579.3751-.37507.5858-.88378.5858-1.41421z" fill="#fff"/></svg>