<svg fill="none" height="20" viewBox="0 0 20 20" width="20" xmlns="http://www.w3.org/2000/svg"><path d="m17 20h-14c-.79565 0-1.55871-.3161-2.12132-.8787-.562609-.5626-.87868-1.3257-.87868-2.1213v-16c0-.265216.105357-.51957.292893-.707107.187537-.187536.441891-.292893.707107-.292893h14c.2652 0 .5196.105357.7071.292893.1875.187537.2929.441891.2929.707107v12h4v4c0 .7956-.3161 1.5587-.8787 2.1213s-1.3257.8787-2.1213.8787zm-1-5v2c0 .2652.1054.5196.2929.7071s.4419.2929.7071.2929.5196-.1054.7071-.2929.2929-.4419.2929-.7071v-2zm-12-10v2h8v-2zm0 4v2h8v-2zm0 4v2h5v-2z" fill="#fff"/></svg>