<svg fill="none" height="18" viewBox="0 0 20 18" width="20" xmlns="http://www.w3.org/2000/svg"><path d="m9 18c0-.3978-.15804-.7794-.43934-1.0607s-.66284-.4393-1.06066-.4393-.77936.158-1.06066.4393-.43934.6629-.43934 1.0607h-5c-.265216 0-.51957-.1054-.707107-.2929-.187536-.1875-.292893-.4419-.292893-.7071v-16c0-.265216.105357-.51957.292893-.707107.187537-.187536.441891-.292893.707107-.292893h5c0 .397825.15804.779356.43934 1.06066.2813.2813.66284.43934 1.06066.43934s.77936-.15804 1.06066-.43934c.2813-.281304.43934-.662835.43934-1.06066h10c.2652 0 .5196.105357.7071.292893.1875.187537.2929.441891.2929.707107v5.5c-.663 0-1.2989.26339-1.7678.73223-.4688.46884-.7322 1.10473-.7322 1.76777s.2634 1.2989.7322 1.7678c.4689.4688 1.1048.7322 1.7678.7322v5.5c0 .2652-.1054.5196-.2929.7071s-.4419.2929-.7071.2929zm-1.5-10.5c.39782 0 .77936-.15804 1.06066-.43934s.43934-.66284.43934-1.06066-.15804-.77936-.43934-1.06066-.66284-.43934-1.06066-.43934-.77936.15804-1.06066.43934-.43934.66284-.43934 1.06066.15804.77936.43934 1.06066.66284.43934 1.06066.43934zm0 6c.39782 0 .77936-.158 1.06066-.4393s.43934-.6629.43934-1.0607-.15804-.7794-.43934-1.0607-.66284-.4393-1.06066-.4393-.77936.158-1.06066.4393-.43934.6629-.43934 1.0607.15804.7794.43934 1.0607.66284.4393 1.06066.4393z" fill="#fff"/></svg>