<svg fill="none" height="120" viewBox="0 0 120 120" width="120" xmlns="http://www.w3.org/2000/svg"><path clip-rule="evenodd" d="m60 0c-33.1371 0-60 26.8629-60 60s26.8629 60 60 60 60-26.8629 60-60-26.8629-60-60-60zm-31.196 49.6946h13.5974v40.8543h-13.5974zm14.4929-12.6379c-.0882-4.0057-2.9528-7.0567-7.6043-7.0567-4.6516 0-7.6926 3.051-7.6926 7.0567 0 3.9228 2.9511 7.0617 7.5161 7.0617h.0869c4.7411 0 7.6939-3.1389 7.6939-7.0617zm32.4859 11.6786c8.9477 0 15.6557 5.8403 15.6557 18.389l-.0006 23.4246h-13.5968v-21.8571c0-5.49-1.9676-9.2362-6.8898-9.2362-3.7566 0-5.9941 2.5255-6.9768 4.9648-.3596.8742-.4478 2.0922-.4478 3.3132v22.8164h-13.599s.1793-37.0207 0-40.8543h13.599v5.7867c1.8047-2.7818 5.0369-6.7471 12.2561-6.7471z" fill="#FF14B1" fill-rule="evenodd"/></svg>